<?xml version="1.0" standalone="no"?>
<!DOCTYPE svg PUBLIC "-//W3C//DTD SVG 1.1//EN" "http://www.w3.org/Graphics/SVG/1.1/DTD/svg11.dtd" >
<svg xmlns="http://www.w3.org/2000/svg">
<metadata>Generated by IcoMoon</metadata>
<defs>
<font id="icomoon" horiz-adv-x="512">
<font-face units-per-em="512" ascent="480" descent="-32" />
<missing-glyph horiz-adv-x="512" />
<glyph unicode="&#x20;" d="" horiz-adv-x="256" />
<glyph unicode="&#xe008;" d="M480.512 216.32l-205.415 205.594c-10.496 10.906-27.673 10.906-38.169 0l-205.44-205.594c-10.521-10.88-6.605-19.815 8.704-19.815h42.829v-157.901c0-11.392 0.487-20.711 21.094-20.711h99.712v158.413h104.32v-158.413h104.678c15.719 0 16.154 9.293 16.154 20.711v157.901h42.803c15.283 0 19.226 8.909 8.729 19.815z" />
<glyph unicode="&#xe00b;" d="M446.223 29.318c-57.402-30.699-114.713-48.413-190.437-46.209-140.366 4.283-241.636 91.442-241.636 238.668 0 146.576 102.246 240.234 241.704 242.426 70.696 1.080 133.954-16.854 183.388-60.49l-59.56-60.249c-30.584 26.084-75.611 41.33-129.409 38.896-87.762-4.087-140.641-67.873-141.813-155.56-1.149-95.007 57.114-160.493 148.196-162.88 42.846-1.067 73.544 4.683 100.111 16.612l-0.001 97.114h-94.644l6.383 79.658h177.718l-0.001-227.985z" horiz-adv-x="460" />
<glyph unicode="&#xe012;" d="M400.274 384.688h-276.195v79.312h276.196l-0.001-79.312zM484.084 356.134h-443.799c-13.229 0-23.941-10.722-23.941-23.959v-176.123h72.103v106.913h347.459v-106.913h72.12v176.123c0 13.237-10.729 23.959-23.942 23.959zM456.036 297.418c-10.59 0-19.152 8.597-19.152 19.144 0 10.598 8.562 19.152 19.152 19.152 10.572 0 19.118-8.555 19.118-19.152-0.001-10.546-8.545-19.144-19.118-19.144zM379.861 222.615v-211.178h-115.579c-41.854 0-21.686 99.224-21.686 99.224s-96.778-23.514-98.035 20.864l-0.001 91.089h-28.188v-128.328l8.266-8.249 102.788-102.779h180.606v239.356h-28.171z" horiz-adv-x="523" />
<glyph unicode="&#xe03b;" d="M384 75.52h-332.8v230.4h66.432c0 0 17.639 22.938 55.552 51.2h-147.584c-14.131 0-25.6-11.469-25.6-25.6v-281.6c0-14.157 11.469-25.6 25.6-25.6h384c14.157 0 25.6 11.443 25.6 25.6v95.897l-51.2-42.112v-28.185zM342.067 253.44v-90.88l169.933 133.146-169.933 127.974v-80.128c-206.387-0.025-206.387-204.032-206.387-204.032 58.419 95.949 94.362 113.92 206.387 113.92z" />
<glyph unicode="&#xe042;" d="M429.696 224c0 26.829 16.512 48 41.344 62.541-4.505 14.95-10.394 29.312-17.69 42.803-27.904-7.296-50.457 3.635-69.401 22.579-18.995 18.969-24.806 41.549-17.51 69.401-13.491 7.296-27.801 13.261-42.803 17.715-14.541-24.857-40.832-41.369-67.635-41.369s-53.069 16.512-67.635 41.369c-15.001-4.454-29.312-10.419-42.803-17.689 7.27-27.879 1.485-50.457-17.485-69.427-18.969-18.944-41.549-29.875-69.401-22.605-7.296-13.465-13.235-27.827-17.715-42.777 24.858-14.541 41.37-35.712 41.37-62.541 0-26.803-16.512-53.094-41.37-67.661 4.48-14.976 10.419-29.312 17.715-42.803 27.879 7.296 50.432 1.485 69.401-17.485s24.755-41.523 17.485-69.401c13.491-7.296 27.827-13.261 42.803-17.715 14.566 24.883 40.832 41.37 67.635 41.37s53.12-16.512 67.661-41.37c15.002 4.48 29.312 10.419 42.803 17.715-7.296 27.878-1.51 50.432 17.51 69.401 18.944 18.944 41.498 29.875 69.401 22.605 7.296 13.491 13.209 27.827 17.69 42.803-24.858 14.567-41.37 35.738-41.37 62.541zM256 130.483c-51.635 0-93.491 41.882-93.491 93.517s41.856 93.517 93.491 93.517c51.661 0 93.517-41.882 93.517-93.517s-41.856-93.517-93.517-93.517z" />
<glyph unicode="&#xe044;" d="M211.846 223.367c0-35.579 28.315-64.431 63.247-64.431 30.767 0 56.386 22.404 62.055 52.084h48.832c5.014 0 9.076 5.373 9.076 12.012 0 6.641-4.063 12.031-9.076 12.031l-48.729-0.001c-4.753 26.421-25.305 47.151-51.32 51.748l-0.329 79.156c-0.017 7.644-5.341 13.827-11.858 13.809-6.5-0.036-11.754-6.253-11.736-13.914l0.329-79.367c-28.798-6.007-50.49-31.987-50.49-63.127zM276.838 412.079c76.195 0 141.327-47.17 169.502-114.313-13.189 0.142-23.561 0.282-29.94 0.351-4.546 0.070-7.069-2.853-7.137-8.243-0.138-9.423 35.384-50.745 53.481-71.195 3.337-3.786 7.589-5.283 11.702-4.949 0.034 0 0.069 0 0.103-0.019 0.035 0.019 0.070 0.019 0.103 0.019 4.097-0.441 8.384 0.968 11.824 4.667 18.564 20.009 55.002 60.449 55.122 69.856 0.053 5.39-2.42 8.383-6.948 8.421-5.601 0.070-14.399 0.193-25.394 0.317-30.611 101.296-122.986 175.009-232.435 175.009-112.667 0-207.374-78.011-235.117-183.922h61.796c25.756 72.286 93.514 124 173.338 124zM276.838 35.94c-76.314 0-141.533 47.346-169.603 114.665 11.668 0.228 20.95 0.369 26.775 0.493 4.547 0.087 7.018 3.063 6.898 8.453-0.138 9.424-36.818 49.654-55.52 69.557-3.458 3.681-7.71 5.072-11.841 4.598-0.035 0-0.053-0.018-0.086 0-0.035 0-0.070 0-0.103 0-4.132 0.298-8.367-1.216-11.685-5.020-17.977-20.573-53.257-62.088-53.084-71.511 0.12-5.389 2.66-8.279 7.174-8.19 6.24 0.106 16.352 0.282 29.161 0.51 31.045-100.503 123.021-173.495 231.902-173.495 112.684 0 207.424 78.028 235.149 183.957h-61.759c-25.756-72.286-93.55-124.017-173.375-124.017z" horiz-adv-x="550" />
<glyph unicode="&#xe049;" d="M261.378 460.102c-128.957 0-233.867-104.911-233.867-233.867s104.912-233.867 233.867-233.867 233.867 104.911 233.867 233.867-104.911 233.867-233.867 233.867zM71.638 226.234c0 104.626 85.115 189.742 189.742 189.742 45.505 0 87.301-16.125 120.023-42.933l-266.834-266.832c-26.805 32.724-42.931 74.519-42.931 120.023zM261.378 36.493c-43.247 0-83.031 14.703-114.976 39.154l265.565 265.566c24.45-31.949 39.154-71.731 39.154-114.977 0-104.628-85.116-189.742-189.742-189.742z" />
<glyph unicode="&#xe05a;" d="M252.877 459.495c-130.073-1.741-234.112-108.595-232.371-238.669 1.741-129.997 108.595-234.061 238.669-232.32 130.022 1.741 234.087 108.595 232.32 238.669-1.715 130.023-108.57 234.061-238.618 232.32zM252.185 80.64h-1.305c-20.019 0.589-34.15 15.36-33.587 35.097 0.563 19.379 15.027 33.485 34.406 33.485l1.178-0.026c20.582-0.615 34.56-15.232 33.945-35.533-0.563-19.43-14.822-33.024-34.637-33.024zM336.435 247.859c-4.736-6.681-15.079-15.001-28.135-25.165l-14.387-9.933c-7.885-6.144-12.647-11.904-14.413-17.562-1.433-4.505-2.099-5.658-2.227-14.745l-0.026-2.329h-54.861l0.154 4.659c0.666 19.098 1.152 30.31 9.063 39.603 12.416 14.566 39.808 32.205 40.96 32.947 3.917 2.969 7.219 6.323 9.702 9.907 5.76 7.936 8.294 14.208 8.294 20.327 0 8.525-2.534 16.41-7.526 23.424-4.813 6.784-13.952 10.214-27.161 10.214-13.107 0-22.067-4.173-27.443-12.697-5.555-8.781-8.32-17.971-8.32-27.392v-2.355h-56.576l0.102 2.457c1.459 34.663 13.824 59.597 36.761 74.163 14.387 9.293 32.307 13.977 53.197 13.977 27.366 0 50.509-6.656 68.685-19.763 18.432-13.286 27.776-33.203 27.776-59.161 0-14.541-4.582-28.185-13.619-40.576z" />
<glyph unicode="&#xe05d;" d="M128 147.2h-25.6c-14.131 0-25.6-11.443-25.6-25.6s11.469-25.6 25.6-25.6h25.6c14.131 0 25.6 11.443 25.6 25.6s-11.469 25.6-25.6 25.6zM128 249.6h-25.6c-14.131 0-25.6-11.469-25.6-25.6s11.469-25.6 25.6-25.6h25.6c14.131 0 25.6 11.469 25.6 25.6s-11.469 25.6-25.6 25.6zM128 352h-25.6c-14.131 0-25.6-11.469-25.6-25.6s11.469-25.6 25.6-25.6h25.6c14.131 0 25.6 11.469 25.6 25.6s-11.469 25.6-25.6 25.6zM230.4 300.8h179.2c14.157 0 25.6 11.469 25.6 25.6s-11.443 25.6-25.6 25.6h-179.2c-14.131 0-25.6-11.469-25.6-25.6s11.469-25.6 25.6-25.6zM409.6 249.6h-179.2c-14.131 0-25.6-11.469-25.6-25.6s11.469-25.6 25.6-25.6h179.2c14.157 0 25.6 11.469 25.6 25.6s-11.443 25.6-25.6 25.6zM409.6 147.2h-179.2c-14.131 0-25.6-11.443-25.6-25.6s11.469-25.6 25.6-25.6h179.2c14.157 0 25.6 11.443 25.6 25.6s-11.443 25.6-25.6 25.6z" />
<glyph unicode="&#xe081;" d="M270.73 366.868h-34.105v-124.318h-124.314v-34.104h124.314v-124.313h34.105v124.313h124.318v34.105h-124.318zM253.686 462.495c-130.683 0-237-106.312-237-236.995s106.322-237 237-237 237 106.322 237 237-106.317 236.995-237 236.995zM456.571 225.5c0-111.872-91.018-202.89-202.885-202.89-111.882 0-202.895 91.018-202.895 202.89s91.018 202.89 202.895 202.89c111.867 0 202.885-91.018 202.885-202.89z" />
<glyph unicode="&#xe082;" d="M251.305 463.222c-131.487 0-238.459-106.967-238.459-238.454s106.978-238.459 238.459-238.459 238.459 106.978 238.459 238.459-106.972 238.454-238.459 238.454zM251.305 20.634c-112.569 0-204.144 91.577-204.144 204.139s91.577 204.135 204.144 204.135 204.144-91.577 204.144-204.139-91.577-204.135-204.144-204.135zM109.061 241.925h284.493v-34.314h-284.493v34.314z" />
<glyph unicode="&#xe083;" d="M256 472c-136.958 0-248-111.042-248-248s111.042-248 248-248 248 111.042 248 248-111.042 248-248 248zM217.56 109.563l-114.111 114.126 43.834 43.834 70.262-70.293 149.064 149.064 43.834-43.834-192.882-192.897z" />
<glyph unicode="&#xe084;" d="M256 472c-136.958 0-248-111.042-248-248s111.042-248 248-248 248 111.042 248 248-111.042 248-248 248zM378.667 145.167l-43.834-43.834-78.833 78.833-78.833-78.833-43.834 43.834 78.833 78.833-78.833 78.833 43.834 43.834 78.833-78.833 78.833 78.833 43.834-43.834-78.833-78.833 78.833-78.833z" />
<glyph unicode="&#xe099;" d="M256 472c-136.974 0-248-111.042-248-248s111.026-248 248-248 248 111.042 248 248c0 136.958-111.026 248-248 248zM256 38c-102.719 0-186 83.281-186 186s83.281 186 186 186 186-83.281 186-186-83.281-186-186-186zM364.5 255h-77.5v108.5c0 8.556-6.928 15.5-15.5 15.5h-31c-8.572 0-15.5-6.944-15.5-15.5v-155c0-8.572 6.928-15.5 15.5-15.5h124c8.572 0 15.5 6.928 15.5 15.5v31c0 8.572-6.928 15.5-15.5 15.5z" />
<glyph unicode="&#xe09b;" d="M252.857 459.491c-130.048-1.735-234.083-108.601-232.349-238.663 1.735-129.991 108.601-234.055 238.649-232.32s234.083 108.601 232.349 238.663c-1.721 130.019-108.601 234.055-238.649 232.32zM278.969 380.999c23.936 0 31.005-13.881 31.005-29.767 0-19.84-15.901-38.201-43.008-38.201-22.685 0-33.465 11.421-32.825 30.265 0 15.901 13.312 37.703 44.829 37.703zM217.571 76.8c-16.356 0-28.345 9.927-16.896 53.603l18.759 77.411c3.257 12.416 3.783 17.38 0 17.38-4.893 0-26.141-8.576-38.713-17.024l-8.163 13.383c39.808 33.223 85.575 52.736 105.187 52.736 16.356 0 19.072-19.357 10.909-49.124l-21.504-81.408c-3.783-14.393-2.147-19.356 1.635-19.356 4.892 0 20.992 5.945 36.807 18.375l9.245-12.416c-38.685-38.685-80.896-53.575-97.28-53.575z" />
<glyph unicode="&#xe0a1;" d="M256 464c-132.548 0-240-107.452-240-240s107.452-240 240-240c132.549 0 240 107.451 240 240s-107.451 240-240 240zM391.795 144c4.289 20.227 6.998 41.696 7.879 64h63.723c-1.668-22.098-6.812-43.557-15.34-64h-56.262zM120.205 304c-4.29-20.227-6.998-41.696-7.879-64h-63.721c1.668 22.097 6.811 43.557 15.339 64h56.261zM359.017 304c4.807-20.481 7.699-41.927 8.64-64h-95.657v64h87.017zM272 336v93.669c7.295-2.123 14.522-5.685 21.615-10.685 13.291-9.369 26.007-23.804 36.77-41.743 7.441-12.401 13.876-26.208 19.248-41.241h-77.633zM181.616 377.243c10.764 17.939 23.478 32.375 36.77 41.743 7.091 5 14.319 8.562 21.614 10.685l-0.001-93.671h-77.632c5.373 15.033 11.808 28.84 19.248 41.243zM240 304v-64h-95.657c0.94 22.073 3.833 43.519 8.639 64h87.017zM63.944 144c-8.528 20.443-13.671 41.901-15.339 64h63.722c0.881-22.304 3.589-43.773 7.879-64h-56.263zM144.343 208h95.657v-64h-87.019c-4.805 20.48-7.698 41.927-8.638 64zM240 112v-93.671c-7.293 2.123-14.522 5.685-21.614 10.685-13.292 9.37-26.007 23.805-36.77 41.743-7.441 12.401-13.875 26.209-19.249 41.242l77.633 0.001zM330.384 70.757c-10.764-17.938-23.479-32.373-36.77-41.743-7.092-4.999-14.319-8.562-21.615-10.685l0.001 93.671h77.633c-5.373-15.033-11.808-28.84-19.249-41.243zM272 144v64h95.657c-0.94-22.073-3.833-43.52-8.64-64h-87.017zM399.673 240c-0.881 22.304-3.589 43.773-7.879 64h56.262c8.528-20.443 13.672-41.903 15.34-64h-63.723zM431.329 336h-47.95c-9.319 29.381-22.188 55.147-37.659 75.714 21.268-10.171 40.529-23.808 57.357-40.636 10.741-10.738 20.183-22.469 28.252-35.077zM108.922 371.077c16.829 16.829 36.091 30.466 57.357 40.636-15.471-20.567-28.338-46.333-37.659-75.714h-47.949c8.069 12.609 17.511 24.339 28.251 35.077zM80.672 112h47.949c9.32-29.381 22.188-55.147 37.659-75.715-21.268 10.171-40.529 23.808-57.357 40.637-10.74 10.739-20.183 22.469-28.251 35.079zM403.077 76.923c-16.828-16.829-36.091-30.467-57.357-40.637 15.471 20.567 28.339 46.334 37.659 75.715h47.95c-8.070-12.61-17.512-24.34-28.252-35.079z" />
<glyph unicode="&#xe0a4;" d="M426.5 131c-21.875 0-41.618-9.076-55.709-23.652l-208.768 104.384c0.637 3.997 0.976 8.092 0.976 12.268s-0.34 8.27-0.976 12.268l208.767 104.384c14.092-14.576 33.835-23.651 55.709-23.651 42.803 0 77.5 34.697 77.5 77.5s-34.697 77.5-77.5 77.5-77.5-34.697-77.5-77.5c0-4.176 0.341-8.271 0.976-12.267l-208.768-104.385c-14.091 14.575-33.834 23.652-55.709 23.652-42.803 0-77.5-34.698-77.5-77.5 0-42.803 34.697-77.5 77.5-77.5 21.874 0 41.617 9.076 55.709 23.651l208.767-104.384c-0.635-3.996-0.976-8.091-0.976-12.267 0-42.803 34.697-77.5 77.5-77.5s77.5 34.697 77.5 77.5c0 42.802-34.697 77.5-77.5 77.5z" />
<glyph unicode="&#xe600;" d="M197.349 167.874l92.694 123.591h-61.796v92.693c0 8.497-6.952 15.449-15.448 15.449h-30.898c-8.496 0-15.448-6.952-15.448-15.449v-92.693h-61.797l92.693-123.591zM367.92 245.118c-8.538 0-15.449-6.91-15.449-15.448v-139.040h-308.978v139.040c0 8.538-6.909 15.448-15.448 15.448-8.539 0-15.448-6.91-15.448-15.448v-150.127c-0.406-1.384-0.633-2.846-0.633-4.361 0-8.538 6.91-15.449 15.448-15.449h339.875c0.107 0 0.211 0.014 0.317 0.015 0.106-0.002 0.209-0.015 0.317-0.015 8.539 0 15.449 6.91 15.449 15.449v154.488c0.001 8.538-6.908 15.448-15.448 15.448z" horiz-adv-x="396" />
<glyph unicode="&#xe601;" d="M196.151 338.115l176.463-176.463h-352.926l176.463 176.463z" horiz-adv-x="396" />
<glyph unicode="&#xe602;" d="M196.151 109.885l176.463 176.463h-352.926l176.463-176.463z" horiz-adv-x="396" />
<glyph unicode="&#xe603;" d="M83.635 225.599l176.463-176.463v352.926l-176.463-176.463z" horiz-adv-x="396" />
<glyph unicode="&#xe604;" d="M311.865 225.599l-176.463-176.463v352.926l176.463-176.463z" horiz-adv-x="396" />
<glyph unicode="&#xe605;" d="M194.994 378.123c0-9.738-7.897-17.625-17.631-17.625v0c-9.733 0-17.62 7.887-17.62 17.625v50.010c0 9.739 7.887 17.625 17.62 17.625v0c9.733 0 17.631-7.887 17.631-17.625v-50.010zM475.777 399.849h-77.478v-21.726c0-15.148-12.319-27.467-27.462-27.467s-27.467 12.319-27.467 27.467v21.726h-138.54v-21.726c0-15.148-12.329-27.467-27.472-27.467s-27.462 12.319-27.462 27.467v21.726h-77.472c-10.871 0-19.678-8.808-19.678-19.678v-344.333c0-10.871 8.807-19.678 19.678-19.678h403.353c10.871 0 19.678 8.808 19.678 19.678v344.333c0 10.871-8.808 19.678-19.678 19.678zM464.296 42.401h-380.401v283.255h380.406v-283.255zM388.458 378.123c0-9.738-7.887-17.625-17.62-17.625v0c-9.733 0-17.63 7.887-17.63 17.625v50.010c0 9.739 7.897 17.625 17.63 17.625v0c9.733 0 17.62-7.887 17.62-17.625v-50.010zM197.332 146.373h-6.641c-0.708 11.481-3.015 25.368-6.941 41.668l-7.856 32.902c-4.732 19.725-7.095 33.87-7.095 42.423 0 7.752 2.322 13.979 6.951 18.716 4.629 4.727 10.659 7.091 18.112 7.091 7.24 0 13.255-2.389 18.039-7.163 4.784-4.789 7.173-10.851 7.173-18.2 0-7.649-2.518-21.938-7.546-42.873l-8.006-32.902c-2.814-11.673-4.882-25.558-6.191-41.663zM194.162 124.791c6.738 0 12.505-2.394 17.284-7.178 4.784-4.784 7.173-10.587 7.173-17.434 0-6.744-2.389-12.5-7.173-17.289-4.779-4.774-10.545-7.163-17.284-7.163s-12.505 2.389-17.284 7.163c-4.784 4.789-7.168 10.545-7.168 17.289 0 6.738 2.363 12.531 7.095 17.361 4.727 4.836 10.519 7.25 17.357 7.25zM272.56 265.632h148.071v-14.641h-148.072v14.641zM272.56 211.976h148.071v-14.641h-148.072v14.641zM272.56 158.319h105.306v-14.641h-105.307v14.641z" horiz-adv-x="554" />
<glyph unicode="&#xe606;" d="M495.455 4.202h-20.687v75.584c0 6.945-10.607 13.447-16.183 16.224l-1.112 1.185c-5.373 2.777-88.824 42.878-132.417 63.695l-5.44 2.793v48.314l3.925 3.082c12.003 9.951 18.716 22.089 18.716 34.19l0.099 1.004 2.162 21.778 8.849 0.455c3.688 0.192 9.821 7.22 11.419 18.236l0.197 1.257c1.733 11.694-2.519 19.854-5.673 20.92l-10.644 1.169 4.142 42.108c-0.259 29.5-24.224 70.635-77.142 70.635-52.953 0-76.919-41.136-77.183-70.635l4.101-41.969-10.679-1.334c-1.35-0.497-2.808-2.229-3.915-4.68-1.955-4.339-2.56-10.266-1.681-16.255l0.181-1.308c1.613-10.907 7.742-17.946 11.414-18.137l8.803-0.465 2.229-22.771c0-12.102 4.236-24.245 16.234-34.19l1.35-3.082v-48.371l-3.542-2.772c-47.667-22.327-124.411-59.2-130.637-63.115-1.614-1.075-3.289-2.276-5.704-3.604-6.645-3.646-15.267-8.642-15.267-14.346v-75.59h-20.687v75.584c0 17.863 16.71 26.94 26.582 32.365 1.826 0.998 1.117 1.882 2.368 2.715 7.080 4.743 100.342 47.699 126.2 61.828v25.822c-10.344 13.24-19.72 29.474-19.886 46.214l0.673 5.529c-10.804 5.017-18.743 17.724-21.080 33.492l0.124 1.308c-1.453 9.795-0.135 19.632 3.439 27.576 2.637 5.859 6.578 10.436 11.218 13.348l-2.425 25.724c0 38.064 30.338 91.668 97.751 91.668 67.382 0 97.704-53.605 97.704-91.668l-0.041-1.004-2.421-24.622c10.938-6.832 17.108-23.035 14.413-41.152l-0.186-1.226c-2.281-15.742-10.829-28.449-21.67-33.456l-0.678-5.513c-0.166-16.741-12.127-32.98-22.471-46.225v-25.874c25.858-12.040 121.499-57.98 127.711-61.202l-0.284-1.029c9.754-4.851 27.721-14.941 27.721-34.625v-75.579z" horiz-adv-x="554" />
<glyph unicode="&#xe607;" d="M271.515 435.244c-118.536 0-214.626-96.091-214.626-214.627s96.090-214.627 214.626-214.627 214.626 96.091 214.626 214.626c0 118.536-96.091 214.626-214.626 214.626zM271.515 113.305c-14.755 0-26.831 12.071-26.831 26.831 0 14.755 12.071 26.831 26.831 26.831s26.831-12.071 26.831-26.831c0-14.76-12.071-26.831-26.831-26.831zM308.596 272.019c-2.038-4.815-37.081-87.18-37.081-87.18s-29.246 66.974-37.081 87.18c-1.887 4.877-3.16 10.111-3.16 15.665 0 22.228 18.013 40.241 40.241 40.241s40.241-18.013 40.241-40.241c0-5.555-1.123-10.851-3.16-15.665z" horiz-adv-x="554" />
<glyph unicode="&#xe60e;" d="M375.709 387.057l-20.133 20.133-154.35-154.35-154.35 154.35-20.133-20.133 154.35-154.35-154.35-154.35 20.133-20.133 154.349 154.35 154.35-154.35 20.133 20.133-154.35 154.35z" horiz-adv-x="396" />
</font>
</defs>
</svg>
